:FULLY-SPECIFIED
:FORCE-ALL-JOINTS-BE-3DOF
:DEGREES
404
root 9.69258 16.8759 20.446 6.56221 -1.56059 -7.60752
lfemur -43.0271 -3.64837 -8.73367
ltibia 21.114 0 0
lfoot -15.6406 13.3383 0
ltoes -12.718 0 0
rfemur 17.6148 5.8665 33.1469
rtibia -1.37824e-14 0 0
rfoot -7.71643 6.92048 0
rtoes -11.4532 0 0
lowerback -8.20854 3.22965 3.42651
upperback 0.174978 3.77948 4.04526
thorax 4.73355 1.90476 2.75389
lowerneck -19.0611 -6.11047 -13.3594
upperneck 21.1486 -7.81643 12.9867
head 11.0664 -3.16539 5.78681
lclavicle -2.26367e-14 -2.48481e-14 0
lhumerus -53.6327 -9.30479 96.3829
lradius 27.1173 0 0
lwrist 8.11082 0 0
lhand -11.3416 -27.641 0
lfingers 7.12502 0 0
lthumb 14.6912 1.81634 0
rclavicle -2.26367e-14 -2.48481e-14 0
rhumerus -27.2771 15.121 -84.9853
rradius 39.4998 0 0
rwrist -17.9964 0 0
rhand -30.6571 -20.9058 0
rfingers 7.12502 0 0
rthumb -3.95205 -50.8483 0
405
root 9.70762 16.85 20.6167 6.64084 -1.57401 -7.66866
lfemur -42.9473 -2.81119 -9.29071
ltibia 21.7671 0 0
lfoot -15.0957 12.4315 0
ltoes -12.6352 0 0
rfemur 18.1521 5.82743 33.1522
rtibia -1.80231e-14 0 0
rfoot -7.42749 6.92536 0
rtoes -12.3039 0 0
lowerback -8.32984 3.25981 3.41303
upperback 0.125749 3.81694 4.02108
thorax 4.75015 1.92299 2.7468
lowerneck -19.1246 -6.13207 -13.3349
upperneck 21.1891 -7.84767 12.9738
head 11.097 -3.17675 5.77341
lclavicle -6.4357e-15 -9.1441e-15 0
lhumerus -53.6908 -9.2553 96.3236
lradius 27.0236 0 0
lwrist 7.7808 0 0
lhand -10.9402 -27.1688 0
lfingers 7.12502 0 0
lthumb 15.0779 2.25866 0
rclavicle -6.4357e-15 -9.1441e-15 0
rhumerus -27.6495 14.9583 -85.2075
rradius 39.2987 0 0
rwrist -17.8207 0 0
rhand -30.4294 -21.1533 0
rfingers 7.12502 0 0
rthumb -3.73215 -51.0995 0
406
root 9.72266 16.8241 20.7874 6.71946 -1.58743 -7.72981
lfemur -42.8676 -1.97402 -9.84776
ltibia 22.4202 0 0
lfoot -14.5509 11.5247 0
ltoes -12.5525 0 0
rfemur 18.6893 5.78835 33.1576
rtibia -2.22639e-14 0 0
rfoot -7.13854 6.93023 0
rtoes -13.1545 0 0
lowerback -8.45115 3.28997 3.39954
upperback 0.0765191 3.85441 3.99689
thorax 4.76675 1.94121 2.7397
lowerneck -19.1882 -6.15366 -13.3103
upperneck 21.2297 -7.87892 12.9609
head 11.1275 -3.18812 5.76002
lclavicle 9.76525e-15 6.5599e-15 0
lhumerus -53.7489 -9.2058 96.2644
lradius 26.9298 0 0
lwrist 7.45077 0 0
lhand -10.5387 -26.6966 0
lfingers 7.12502 0 0
lthumb 15.4646 2.70098 0
rclavicle 9.76525e-15 6.5599e-15 0
rhumerus -28.0219 14.7957 -85.4296
rradius 39.0975 0 0
rwrist -17.6451 0 0
rhand -30.2017 -21.4008 0
rfingers 7.12502 0 0
rthumb -3.51226 -51.3507 0
407
root 9.73769 16.7981 20.9582 6.79808 -1.60085 -7.79095
lfemur -42.7879 -1.13684 -10.4048
ltibia 23.0733 0 0
lfoot -14.0061 10.6179 0
ltoes -12.4698 0 0
rfemur 19.2265 5.74927 33.163
rtibia -2.65046e-14 0 0
rfoot -6.84959 6.9351 0
rtoes -14.0051 0 0
lowerback -8.57245 3.32013 3.38605
upperback 0.0272895 3.89188 3.9727
thorax 4.78336 1.95943 2.73261
lowerneck -19.2518 -6.17525 -13.2857
upperneck 21.2703 -7.91016 12.948
head 11.158 -3.19949 5.74662
lclavicle 2.59662e-14 2.22639e-14 0
lhumerus -53.807 -9.15631 96.2052
lradius 26.836 0 0
lwrist 7.12074 0 0
lhand -10.1372 -26.2244 0
lfingers 7.12502 0 0
lthumb 15.8512 3.14331 0
rclavicle 2.59662e-14 2.22639e-14 0
rhumerus -28.3942 14.6331 -85.6517
rradius 38.8963 0 0
rwrist -17.4695 0 0
rhand -29.974 -21.6484 0
rfingers 7.12502 0 0
rthumb -3.29237 -51.6018 0
408
root 9.75273 16.7722 21.129 6.87671 -1.61427 -7.85209
lfemur -42.7081 -0.299671 -10.9619
ltibia 23.7264 0 0
lfoot -13.4612 9.71113 0
ltoes -12.387 0 0
rfemur 19.7638 5.7102 33.1683
rtibia -3.07454e-14 0 0
rfoot -6.56065 6.93998 0
rtoes -14.8558 0 0
lowerback -8.69375 3.35029 3.37257
upperback -0.0219401 3.92934 3.94852
thorax 4.79997 1.97766 2.72552
lowerneck -19.3153 -6.19685 -13.2612
upperneck 21.3108 -7.94141 12.9351
head 11.1886 -3.21085 5.73322
lclavicle 4.21672e-14 3.79679e-14 0
lhumerus -53.8651 -9.10682 96.1459
lradius 26.7423 0 0
lwrist 6.79072 0 0
lhand -9.73575 -25.7522 0
lfingers 7.12502 0 0
lthumb 16.2379 3.58563 0
rclavicle 4.21672e-14 3.79679e-14 0
rhumerus -28.7666 14.4704 -85.8739
rradius 38.6952 0 0
rwrist -17.2938 0 0
rhand -29.7463 -21.8959 0
rfingers 7.12502 0 0
rthumb -3.07247 -51.853 0
409
root 9.76776 16.7463 21.2997 6.95533 -1.62769 -7.91323
lfemur -42.6284 0.537503 -11.5189
ltibia 24.3795 0 0
lfoot -12.9164 8.80434 0
ltoes -12.3043 0 0
rfemur 20.301 5.67112 33.1737
rtibia -3.49861e-14 0 0
rfoot -6.2717 6.94485 0
rtoes -15.7064 0 0
lowerback -8.81505 3.38045 3.35908
upperback -0.0711697 3.96681 3.92433
thorax 4.81657 1.99588 2.71843
lowerneck -19.3789 -6.21844 -13.2366
upperneck 21.3514 -7.97265 12.9222
head 11.2191 -3.22222 5.71982
lclavicle 5.83681e-14 5.36719e-14 0
lhumerus -53.9232 -9.05733 96.0867
lradius 26.6485 0 0
lwrist 6.46069 0 0
lhand -9.33428 -25.28 0
lfingers 7.12502 0 0
lthumb 16.6246 4.02795 0
rclavicle 5.83681e-14 5.36719e-14 0
rhumerus -29.139 14.3078 -86.096
rradius 38.494 0 0
rwrist -17.1182 0 0
rhand -29.5186 -22.1435 0
rfingers 7.12502 0 0
rthumb -2.85258 -52.1042 0
